<?xml version="1.0" standalone="no"?>
<!DOCTYPE svg PUBLIC "-//W3C//DTD SVG 20010904//EN"
 "http://www.w3.org/TR/2001/REC-SVG-20010904/DTD/svg10.dtd">
<svg version="1.0" xmlns="http://www.w3.org/2000/svg"
 width="928.000000pt" height="928.000000pt" viewBox="0 0 928.000000 928.000000"
 preserveAspectRatio="xMidYMid meet">
<metadata>
Created by potrace 1.11, written by Peter Selinger 2001-2013
</metadata>
<g transform="translate(0.000000,928.000000) scale(0.100000,-0.100000)"
fill="#000000" stroke="none">
<path d="M4505 9246 c-33 -17 -62 -33 -65 -36 -3 -3 -81 -42 -175 -88 -93 -46
-179 -88 -189 -94 -11 -5 -215 -109 -455 -230 -240 -121 -476 -241 -526 -266
-49 -26 -92 -46 -95 -47 -3 0 -9 -3 -15 -7 -10 -6 -394 -200 -1472 -744 l-633
-319 1 -1000 0 -1000 242 -120 c133 -66 254 -128 270 -138 15 -10 27 -15 27
-12 0 4 15 -2 33 -13 17 -11 240 -125 495 -253 254 -128 462 -236 462 -239 0
-4 -215 -116 -477 -248 -263 -132 -606 -305 -763 -384 l-285 -143 -3 -1000 -2
-1000 507 -256 c280 -141 794 -400 1143 -576 838 -423 838 -423 845 -423 3 0
11 -4 18 -10 11 -9 161 -85 979 -496 l207 -104 388 196 c213 108 394 201 401
206 6 6 12 7 12 3 0 -4 6 -3 13 3 6 5 336 173 732 372 396 200 766 387 823
416 56 29 102 50 102 46 0 -4 4 -2 8 3 4 6 219 117 477 247 259 130 484 243
500 252 17 9 35 16 42 16 6 0 13 3 15 8 2 4 44 27 93 53 l90 45 0 993 c0 546
-2 996 -5 1000 -4 6 -842 433 -1240 631 -8 4 -42 22 -75 39 -33 17 -95 47
-137 68 -43 20 -78 40 -78 43 0 4 211 113 307 158 15 7 35 17 43 21 8 5 276
140 595 301 319 161 582 296 585 301 4 6 5 1967 1 1991 0 4 -49 31 -108 60
-60 29 -111 57 -114 61 -3 5 -10 9 -15 9 -11 0 20 -15 -879 438 -758 382
-1420 717 -1470 744 -16 9 -33 16 -36 16 -3 0 -37 17 -75 38 -38 21 -72 39
-77 40 -4 1 -42 19 -85 41 -42 21 -201 101 -352 177 -151 77 -276 142 -278
146 -2 5 -9 8 -16 8 -6 0 -45 17 -86 39 -41 21 -84 41 -95 43 -11 3 -46 -8
-80 -26z m-101 -589 c0 -74 -5 -140 -9 -147 -5 -9 -4 -11 3 -6 9 5 9 0 3 -17
-6 -14 -7 -28 -3 -31 9 -10 8 -256 -1 -256 -4 0 -4 -8 1 -17 4 -10 7 -45 5
-78 -3 -75 -3 -86 0 -163 1 -34 -2 -62 -6 -62 -4 0 -4 -8 1 -17 9 -20 8 -122
-1 -147 -4 -10 -3 -15 3 -11 7 4 7 -3 0 -19 -5 -14 -6 -27 -2 -30 6 -3 7 -113
3 -222 -1 -17 -34 -44 -61 -48 -3 -1 -11 -5 -18 -10 -8 -4 -206 -105 -440
-223 -235 -119 -431 -219 -437 -224 -5 -5 -17 -9 -26 -9 -10 0 -19 -3 -21 -7
-6 -14 -576 -295 -590 -291 -7 2 -60 28 -118 57 -58 30 -111 56 -118 57 -8 1
-21 8 -30 16 -10 7 -256 132 -549 278 -292 146 -532 268 -532 272 -1 4 80 48
179 98 100 50 196 100 215 110 19 11 35 16 35 12 0 -4 4 -2 8 3 4 6 183 98
397 205 215 107 392 197 395 200 10 10 217 110 228 110 6 0 12 3 14 8 2 4 143
77 313 162 171 85 312 158 313 163 2 4 8 7 14 7 10 0 193 91 603 301 116 59
215 107 220 108 6 1 10 -49 9 -132z m675 -27 c175 -88 323 -160 329 -160 6 0
12 -3 14 -7 2 -5 152 -83 333 -174 182 -92 535 -270 785 -397 250 -126 614
-309 808 -407 l353 -178 -28 -16 c-15 -10 -82 -44 -148 -77 -66 -32 -121 -62
-123 -66 -2 -5 -11 -8 -21 -8 -9 0 -21 -4 -26 -9 -6 -5 -236 -123 -512 -262
l-503 -253 -77 39 c-43 22 -80 40 -83 40 -3 1 -41 19 -85 42 -44 23 -186 94
-315 159 -129 66 -236 122 -238 127 -2 4 -9 7 -15 7 -9 0 -181 85 -652 324
l-121 61 0 688 c0 378 2 687 4 687 1 0 146 -72 321 -160z m186 -1870 c363
-183 663 -336 668 -339 6 -6 -160 -92 -1047 -538 l-309 -155 -281 142 c-154
78 -460 232 -678 342 -219 110 -398 203 -398 206 1 4 75 43 165 87 91 44 165
83 165 87 0 5 3 7 8 6 4 -2 189 89 412 202 613 309 614 309 625 300 5 -4 307
-157 670 -340z m-3535 8 c267 -134 487 -245 490 -248 3 -3 147 -76 320 -163
308 -155 332 -167 368 -186 14 -9 138 -69 151 -74 3 -1 66 -33 142 -72 75 -38
320 -162 545 -275 225 -113 411 -208 412 -213 2 -4 8 -5 13 -1 5 3 9 2 9 -3 0
-7 -73 -45 -385 -200 -60 -30 -117 -58 -125 -62 -8 -5 -179 -91 -380 -192
-201 -101 -368 -188 -371 -192 -3 -5 -9 -9 -12 -8 -4 0 -26 -9 -51 -19 l-44
-20 -93 48 c-52 26 -95 50 -97 55 -2 4 -8 7 -14 7 -10 0 -249 119 -1048 523
l-325 164 -1 686 c-1 378 1 687 5 687 3 0 224 -109 491 -242z m6195 -441 c0
-591 -2 -680 -15 -692 -8 -7 -46 -28 -85 -46 -38 -19 -73 -38 -76 -42 -3 -5
-9 -8 -13 -8 -3 1 -65 -28 -136 -64 -71 -36 -133 -66 -137 -66 -5 -1 -19 -9
-33 -18 -23 -16 -78 -43 -90 -45 -3 -1 -11 -5 -19 -10 -8 -5 -232 -119 -498
-253 l-484 -244 -307 155 c-833 419 -1052 531 -1052 536 1 3 87 48 193 100
106 52 203 102 217 111 14 9 28 17 33 18 8 1 22 8 687 343 272 138 554 279
625 315 72 35 139 69 150 75 11 6 191 98 401 203 209 106 389 197 400 203 10
6 57 29 104 52 47 23 89 46 95 51 5 5 16 8 24 7 14 -3 15 -89 16 -681z m-3071
-1136 c151 -77 281 -143 288 -147 7 -5 19 -9 27 -11 8 -1 17 -7 21 -13 4 -7
11 -12 16 -12 5 0 52 -22 104 -48 52 -26 100 -49 105 -51 6 -1 30 -14 55 -28
25 -14 141 -73 257 -131 117 -58 212 -107 212 -110 0 -3 -100 -54 -222 -115
-122 -60 -225 -114 -228 -118 -3 -5 -10 -9 -15 -9 -14 -1 -58 -22 -65 -31 -3
-5 -12 -9 -20 -11 -8 -1 -39 -15 -69 -31 -30 -15 -209 -106 -398 -201 l-344
-174 -679 343 c-373 188 -679 344 -679 348 0 3 45 27 100 55 249 122 1216 610
1220 615 3 3 12 9 20 12 8 3 16 6 16 6 1 1 126 -62 278 -138z m-1419 -1062
c325 -164 626 -315 670 -337 l79 -39 -29 -16 c-178 -91 -1121 -566 -1132 -570
-5 -1 -52 -25 -106 -54 l-98 -51 -337 169 c-185 93 -342 173 -349 179 -7 5
-18 10 -26 10 -7 0 -17 4 -23 9 -5 5 -150 79 -322 166 l-312 157 186 94 c103
52 192 98 198 103 6 5 16 10 21 11 14 2 448 220 459 231 6 5 18 9 27 9 10 0
19 3 21 8 2 4 102 57 223 119 145 73 227 109 240 106 11 -3 286 -140 610 -304z
m3372 76 c256 -129 472 -240 479 -246 8 -6 14 -9 14 -6 0 7 130 -60 145 -74 5
-5 14 -9 20 -9 6 0 51 -21 100 -48 50 -26 92 -47 95 -48 15 -1 41 -22 34 -27
-9 -5 -511 -260 -840 -426 -100 -50 -187 -91 -192 -91 -6 0 -12 -3 -14 -7 -5
-12 -291 -153 -309 -153 -15 0 -341 159 -364 177 -5 4 -39 21 -75 38 -36 16
-73 36 -84 45 -10 8 -20 14 -22 12 -2 -1 -67 29 -144 68 -77 39 -143 70 -146
69 -4 0 -10 3 -13 8 -3 4 -122 66 -263 137 -142 70 -258 131 -258 134 0 3 3 2
7 -1 3 -4 11 -3 17 2 6 5 243 126 526 269 754 381 815 411 818 412 2 0 213
-106 469 -235z m-1939 -799 c426 -214 1067 -537 1070 -541 3 -3 -222 -119
-380 -196 -28 -14 -56 -28 -80 -41 -13 -6 -30 -14 -38 -19 -8 -4 -203 -102
-432 -218 -230 -116 -423 -211 -430 -211 -7 0 -135 62 -285 138 -150 75 -452
227 -672 337 -220 110 -400 203 -401 207 0 3 136 75 303 159 166 84 469 237
672 340 204 103 374 188 378 188 5 1 137 -64 295 -143z m-3145 -190 c266 -134
492 -248 502 -254 11 -6 90 -46 175 -88 85 -42 164 -82 175 -87 11 -6 27 -13
35 -17 8 -5 254 -128 545 -275 292 -148 685 -346 875 -442 190 -96 351 -180
359 -188 16 -16 21 -78 9 -112 -4 -13 -4 -23 0 -23 6 0 8 -108 2 -135 -1 -5
-1 -14 0 -20 6 -29 4 -255 -3 -255 -4 0 -4 -8 1 -17 9 -20 8 -122 -1 -147 -4
-10 -3 -15 3 -11 7 4 7 -3 0 -19 -5 -14 -6 -27 -2 -30 6 -4 8 -114 2 -141 -1
-5 -1 -14 0 -20 6 -29 4 -255 -3 -255 -4 0 -4 -8 1 -17 8 -19 9 -159 1 -168
-3 -2 -111 49 -240 114 -129 65 -495 250 -814 410 -319 161 -584 297 -590 302
-5 5 -15 9 -22 9 -7 0 -31 11 -53 25 -22 14 -40 22 -40 19 0 -4 -6 -2 -12 4
-7 5 -319 164 -693 352 -374 189 -685 347 -691 352 -9 6 -12 190 -12 693 0
377 2 685 5 685 2 0 221 -110 486 -244z m6201 -438 c-1 -376 -2 -686 -3 -690
-1 -8 -167 -90 -177 -88 -4 1 -10 -2 -13 -7 -3 -5 -152 -83 -331 -173 -179
-89 -536 -270 -795 -400 -1251 -631 -1844 -930 -1847 -930 -3 0 -3 1356 1
1372 0 3 83 48 184 98 468 236 1547 781 1676 847 80 40 150 73 157 73 7 0 14
4 16 8 2 5 80 47 173 93 94 46 173 88 176 92 3 5 9 8 13 8 7 -1 317 154 586
292 91 47 170 85 175 86 7 1 10 -232 9 -681z"/>
</g>
</svg>
