<?xml version="1.0" encoding="UTF-8"?>
<svg width="24px" height="24px" viewBox="0 0 24 24" version="1.1" xmlns="http://www.w3.org/2000/svg" xmlns:xlink="http://www.w3.org/1999/xlink">
    <!-- Generator: Sketch 52.6 (67491) - http://www.bohemiancoding.com/sketch -->
    <title>Icons / Interface / Fund</title>
    <desc>Created with Sketch.</desc>
    <g id="Icons-/-Interface-/-Fund" stroke="none" stroke-width="1" fill="none" fill-rule="evenodd">
        <g id="money-bag-with-dollar-symbol" transform="translate(4.000000, 2.000000)" fill="#2550D9">
            <path d="M9.30968839,12.7956487 C9.23775637,12.7168725 9.14674221,12.657949 9.05269122,12.6088612 C8.84790935,12.5020737 8.62395467,12.4373031 8.4015864,12.3788329 L8.4015864,14.1019377 C8.76251558,14.0611445 9.17688385,13.930153 9.36639093,13.5932011 C9.45686119,13.4322493 9.47485552,13.2344929 9.43800567,13.0553201 C9.418017,12.9582323 9.37672521,12.8691218 9.30968839,12.7956487 Z" id="Path"></path>
            <path d="M6.70862323,10.0411105 C6.64657224,10.1317167 6.60763739,10.2346516 6.59689518,10.344068 C6.58615297,10.453711 6.5921813,10.5756827 6.63383569,10.6788895 C6.67349575,10.7772465 6.7565779,10.8498584 6.84233428,10.9083286 C6.93856091,10.973779 7.0443966,11.0249065 7.1521813,11.068238 C7.24260623,11.1046346 7.34431728,11.1394448 7.45396034,11.1730765 L7.45396034,9.61386969 C7.1769745,9.6729745 6.87433428,9.79916147 6.70862323,10.0411105 Z" id="Path"></path>
            <path d="M9.00863456,4.19122946 C10.4739717,2.96027195 11.4530992,0.187104816 10.8505382,0.0658130312 C10.0499037,-0.0954107649 8.31129745,0.611535411 7.47095751,0.736090652 C6.27907082,0.88 4.98094051,-0.556373938 4.25228329,0.244260623 C3.65983003,0.895229462 4.67703116,3.2625949 6.26846459,4.29393768 C1.52049858,6.62749008 -5.15308782,18.342119 6.48933711,19.1921133 C22.5986176,20.368272 14.5321246,6.4652238 9.00863456,4.19122946 Z M10.3921133,13.4299377 C10.3425722,13.8866402 10.1005326,14.2996487 9.73874221,14.580034 C9.35673654,14.876102 8.87759773,15.0138017 8.40154108,15.0523739 L8.40154108,15.5569858 C8.40154108,15.6920113 8.34257224,15.8225949 8.24149575,15.9119773 C8.10257224,16.0349008 7.89842493,16.0652238 7.72981303,15.9875354 C7.56333144,15.9109348 7.45396034,15.7401926 7.45396034,15.5569858 L7.45396034,15.0054618 C7.37232861,14.9899603 7.29128612,14.9715127 7.21119547,14.9495297 C6.76627762,14.8272861 6.3535864,14.5890085 6.05212465,14.2364646 C5.90196034,14.0607365 5.77953541,13.8613484 5.69486686,13.6460963 C5.67274788,13.589847 5.65303116,13.5325552 5.63576204,13.4746289 C5.62012465,13.422187 5.60398867,13.3688839 5.5984136,13.314221 C5.58903116,13.2225269 5.6072068,13.1289745 5.64994901,13.0472975 C5.73779037,12.8792748 5.92290085,12.7777904 6.11190935,12.7946516 C6.29792635,12.8111501 6.46096317,12.940238 6.51952408,13.1175524 C6.53756374,13.17217 6.5498017,13.2281473 6.57006232,13.2821756 C6.59014164,13.3358414 6.61439093,13.3880113 6.64290085,13.4376884 C6.69919547,13.5355014 6.76972238,13.6256997 6.85094618,13.7039773 C7.0183796,13.8652918 7.23163739,13.9701303 7.45396034,14.0324986 L7.45396034,12.1577337 C7.01924079,12.0451898 6.57051558,11.89983 6.21153541,11.6207139 C6.03707649,11.4850085 5.88904249,11.3163966 5.79209065,11.1168272 C5.68979037,10.9061983 5.64741076,10.6715467 5.64568839,10.4384816 C5.64392068,10.2018357 5.68888385,9.96727479 5.7876034,9.75166006 C5.88006799,9.54977904 6.0131898,9.36852125 6.17640793,9.21826629 C6.52541643,8.89704249 6.9890085,8.71786969 7.45400567,8.65205666 L7.45400567,8.6108102 L7.45400567,8.12822663 C7.45400567,7.99324646 7.5129745,7.86261756 7.61405099,7.77323513 C7.75301983,7.65035694 7.95707649,7.61998867 8.12573371,7.69767705 C8.29216997,7.77432295 8.4015864,7.94501983 8.4015864,8.12822663 L8.4015864,8.6108102 L8.4015864,8.64920113 C8.46354674,8.65699717 8.52532578,8.66633428 8.58678754,8.67748442 C9.04339943,8.76011331 9.48999433,8.94866856 9.82390935,9.27786969 C9.98209632,9.43379037 10.1115921,9.61958074 10.2026516,9.82218697 C10.2280793,9.87870822 10.2503343,9.93654391 10.2695977,9.99551275 C10.2875467,10.0504929 10.3055864,10.1071048 10.314153,10.1644873 C10.3278414,10.2560907 10.313881,10.3507309 10.2746742,10.4345382 C10.1943569,10.6062323 10.0142323,10.7155581 9.82472521,10.7074448 C9.63852691,10.6993314 9.46982436,10.578085 9.40315014,10.404034 C9.38329745,10.352272 9.3733711,10.2974731 9.35311048,10.245847 C9.33266856,10.1935864 9.3061983,10.143728 9.27569405,10.0966346 C9.21640793,10.0050765 9.13958074,9.92657224 9.05187535,9.86189235 C8.86196034,9.72165439 8.63161473,9.64858924 8.40145042,9.60775071 L8.40145042,11.4018357 C8.6749915,11.4673314 8.94875921,11.5387649 9.21083286,11.6421076 C9.60693484,11.7983003 9.98227762,12.0378017 10.1984816,12.4154561 C10.1649405,12.3566232 10.1323059,12.2992861 10.1996147,12.4174051 C10.2656997,12.5334391 10.234153,12.4781416 10.2009745,12.4199887 C10.3729858,12.7231275 10.4295071,13.0855977 10.3921133,13.4299377 Z" id="Shape"></path>
        </g>
    </g>
</svg>