<?xml version="1.0" encoding="UTF-8"?>
<svg width="24px" height="24px" viewBox="0 0 24 24" version="1.1" xmlns="http://www.w3.org/2000/svg" xmlns:xlink="http://www.w3.org/1999/xlink">
    <!-- Generator: Sketch 52.6 (67491) - http://www.bohemiancoding.com/sketch -->
    <title>Icons / Interface / Trash</title>
    <desc>Created with Sketch.</desc>
    <defs>
        <path d="M19.4230076,3.875 L14.9628561,3.875 L14.9628561,3.25 C14.9628561,2.55964406 14.4461995,2 13.8088713,2 L10.2315182,2 C9.63963789,2.06442748 9.18995081,2.60565241 9.19293184,3.25 L9.19293184,3.875 L4.57699243,3.875 C4.25832831,3.875 4,4.15482203 4,4.5 C4,4.84517797 4.25832831,5.125 4.57699243,5.125 L19.4230076,5.125 C19.7416717,5.125 20,4.84517797 20,4.5 C20,4.15482203 19.7416717,3.875 19.4230076,3.875 Z M5.15398485,6.375 L5.15398485,20.125 C5.14314399,20.6107169 5.31094289,21.0811913 5.6204422,21.4328528 C5.9299415,21.7845143 6.35576915,21.9885344 6.8041832,22 L17.3227551,22 C17.7762086,21.9967876 18.2094612,21.7963855 18.5251886,21.4438115 C18.8409159,21.0912375 19.0126464,20.6160523 19.0018031,20.125 L19.0018031,6.375 L5.15398485,6.375 Z M10.3469167,18.875 L9.19293184,18.875 L9.19293184,9.5 L10.3469167,9.5 L10.3469167,18.875 Z M14.9628561,18.875 L13.8088713,18.875 L13.8088713,9.5 L14.9628561,9.5 L14.9628561,18.875 Z" id="path-1"></path>
    </defs>
    <g id="Icons-/-Interface-/-Trash" stroke="none" stroke-width="1" fill="none" fill-rule="evenodd">
        <mask id="mask-2" fill="white">
            <use xlink:href="#path-1"></use>
        </mask>
        <use id="Mask" fill="#2550D9" xlink:href="#path-1"></use>
    </g>
</svg>