<?xml version="1.0" encoding="UTF-8"?>
<svg width="24px" height="24px" viewBox="0 0 24 24" version="1.1" xmlns="http://www.w3.org/2000/svg" xmlns:xlink="http://www.w3.org/1999/xlink">
    <!-- Generator: Sketch 52.6 (67491) - http://www.bohemiancoding.com/sketch -->
    <title>Icons / Interface / Crypto Wallet</title>
    <desc>Created with Sketch.</desc>
    <g id="Icons-/-Interface-/-Crypto-Wallet" stroke="none" stroke-width="1" fill="none" fill-rule="evenodd">
        <path d="M16.486795,11.9912538 C14.8337652,11.9912538 13.4897675,13.335423 13.4897675,14.9884527 C13.4897675,16.641311 14.8337652,17.9854802 16.486795,17.9854802 L20.9825076,17.9854802 L20.9825076,20.2332508 C20.9825076,20.6450076 20.6458651,20.9825076 20.2332508,20.9825076 L3.74925685,20.9825076 C3.33732852,20.9825076 3,20.6450076 3,20.2332508 L3,9.74348321 C3,9.3313834 3.31331937,8.86903583 3.69592223,8.71623476 L17.9854802,3 L17.9854802,8.99405488 L19.4838224,8.99405488 C20.3078506,8.99405488 20.9825076,9.66854039 20.9825076,10.4925686 L20.9825076,11.9912538 L16.486795,11.9912538 Z M7.03456557,8.99422636 L7.03456557,8.99405488 L16.486795,8.99405488 L16.486795,5.21347181 L7.03456557,8.99422636 Z M14.9882812,14.9884527 C14.9882812,14.1611661 15.6607088,13.4895961 16.486795,13.4895961 L20.9825076,13.4895961 L20.9825076,16.486795 L16.486795,16.486795 C15.6607088,16.486795 14.9882812,15.8136814 14.9882812,14.9884527 Z" id="Combined-Shape" fill="#2550D9"></path>
    </g>
</svg>