<svg height="597pt" viewBox="-18 -38 597.33331 597" width="597pt" xmlns="http://www.w3.org/2000/svg"><path d="m200 198.832031c-1.726562-.023437-3.445312-.273437-5.113281-.75l-34.886719 34.890625v285.859375h80v-308.816406l-29-14.503906c-3.261719 2.167969-7.085938 3.328125-11 3.320312zm0 0"/><path d="m320 227.652344 29 14.5c3.261719-2.167969 7.085938-3.324219 11-3.320313 1.726562.027344 3.445312.273438 5.113281.753907l34.886719-34.894532v-45.859375h-80zm0 0"/><path d="m380 258.832031c-.453125 10.460938-8.898438 18.800781-19.359375 19.128907-10.464844.320312-19.410156-7.476563-20.507813-17.886719l-20.132812-10.058594v268.816406h80v-285.859375l-20.75 20.75c.476562 1.664063.726562 3.382813.75 5.109375zm0 0"/><path d="m160 204.691406 20.75-20.746094c-.476562-1.664062-.726562-3.382812-.75-5.113281.453125-10.457031 8.898438-18.796875 19.359375-19.125 10.464844-.320312 19.410156 7.476563 20.507813 17.886719l20.132812 10.058594v-108.820313h-80zm0 0"/><path d="m0 518.832031h80v-205.859375l-20.75 20.75c.476562 1.664063.726562 3.382813.75 5.109375 0 11.046875-8.953125 20-20 20s-20-8.953125-20-20c0-11.042969 8.953125-20 20-20 1.726562.027344 3.445312.273438 5.113281.753907l34.886719-34.894532v-45.859375h-80zm0 0"/><path d="m480 124.691406 20.75-20.746094c-.476562-1.664062-.726562-3.382812-.75-5.113281 0-11.042969 8.953125-20 20-20s20 8.957031 20 20c0 11.046875-8.953125 20-20 20-1.726562-.023437-3.445312-.273437-5.113281-.75l-34.886719 34.890625v365.859375h80v-520h-80zm0 0"/><path d="m140 224.691406-40 40v28.28125l40-40zm0 0"/><path d="m300 217.652344-40-20v22.363281l40 20zm0 0"/><path d="m460 144.691406-40 40v28.28125l40-40zm0 0"/></svg>