<?xml version="1.0" encoding="UTF-8"?>
<svg width="24px" height="24px" viewBox="0 0 24 24" version="1.1" xmlns="http://www.w3.org/2000/svg" xmlns:xlink="http://www.w3.org/1999/xlink">
    <!-- Generator: Sketch 52.6 (67491) - http://www.bohemiancoding.com/sketch -->
    <title>Icons / Interface / View</title>
    <desc>Created with Sketch.</desc>
    <defs>
        <path d="M12,5.5 C7.45454545,5.5 3.57272727,8.19533333 2,12 C3.57272727,15.8046667 7.45454545,18.5 12,18.5 C16.5454545,18.5 20.4272727,15.8046667 22,12 C20.4272727,8.19533333 16.5454545,5.5 12,5.5 L12,5.5 Z M12,16.3333333 C9.49090909,16.3333333 7.45454545,14.392 7.45454545,12 C7.45454545,9.608 9.49090909,7.66666667 12,7.66666667 C14.5090909,7.66666667 16.5454545,9.608 16.5454545,12 C16.5454545,14.392 14.5090909,16.3333333 12,16.3333333 L12,16.3333333 Z M12,9.4 C10.4909091,9.4 9.27272727,10.5613333 9.27272727,12 C9.27272727,13.4386667 10.4909091,14.6 12,14.6 C13.5090909,14.6 14.7272727,13.4386667 14.7272727,12 C14.7272727,10.5613333 13.5090909,9.4 12,9.4 L12,9.4 Z" id="path-1"></path>
    </defs>
    <g id="Icons-/-Interface-/-View" stroke="none" stroke-width="1" fill="none" fill-rule="evenodd">
        <mask id="mask-2" fill="white">
            <use xlink:href="#path-1"></use>
        </mask>
        <use id="Shape" fill="#2550D9" xlink:href="#path-1"></use>
    </g>
</svg>