<?xml version="1.0" encoding="UTF-8"?>
<svg width="24px" height="24px" viewBox="0 0 24 24" version="1.1" xmlns="http://www.w3.org/2000/svg" xmlns:xlink="http://www.w3.org/1999/xlink">
    <!-- Generator: Sketch 52.6 (67491) - http://www.bohemiancoding.com/sketch -->
    <title>Icons / Interface / Plus</title>
    <desc>Created with Sketch.</desc>
    <defs>
        <path d="M13,11 L20.007,11 C20.555,11 21,11.444 21,12 C21,12.552 20.555,13 20.007,13 L13,13 L13,20.0066023 C13,20.5552407 12.5561352,21 12,21 C11.4477153,21 11,20.5550537 11,20.0066023 L11,13 L3.993,13 C3.445,13 3,12.557 3,12 C3,11.448 3.445,11 3.993,11 L11,11 L11,3.99339768 C11,3.44475929 11.4438648,3 12,3 C12.5522847,3 13,3.44494629 13,3.99339768 L13,11 Z" id="path-1"></path>
    </defs>
    <g id="Icons-/-Interface-/-Plus" stroke="none" stroke-width="1" fill="none" fill-rule="evenodd">
        <mask id="mask-2" fill="white">
            <use xlink:href="#path-1"></use>
        </mask>
        <use id="Combined-Shape" fill="#2550D9" xlink:href="#path-1"></use>
    </g>
</svg>