<?xml version="1.0" encoding="UTF-8"?>
<svg width="24px" height="24px" viewBox="0 0 24 24" version="1.1" xmlns="http://www.w3.org/2000/svg" xmlns:xlink="http://www.w3.org/1999/xlink">
    <!-- Generator: Sketch 52.6 (67491) - http://www.bohemiancoding.com/sketch -->
    <title>Icons / Interface / Warning</title>
    <desc>Created with Sketch.</desc>
    <defs>
        <path d="M21.7155135,17.9640959 L14.0769031,3.74139733 C13.6649453,2.97625163 12.8721488,2.5 12.0104002,2.5 C11.1486515,2.5 10.3558551,2.97625163 9.94389724,3.74139733 L2.2974443,17.9640959 C1.89017135,18.7030893 1.90184816,19.605151 2.32811033,20.3331183 C2.75437249,21.0610856 3.53105898,21.5053848 4.36786848,21.4999507 L19.6450893,21.4999507 C20.4748037,21.5007191 21.2435759,21.059641 21.6683292,20.3391297 C22.0930825,19.6186185 22.1110112,18.725212 21.7155135,17.9878797 L21.7155135,17.9640959 Z M10.837944,7.8163511 C10.837944,7.15958024 11.3646261,6.62716226 12.0143214,6.62716226 C12.6640167,6.62716226 13.1906988,7.15958024 13.1906988,7.8163511 L13.1906988,13.2786919 C13.1906988,13.9354627 12.6640167,14.4678807 12.0143214,14.4678807 C11.3646261,14.4678807 10.837944,13.9354627 10.837944,13.2786919 L10.837944,7.8163511 Z M12.0456915,18.5269786 C11.3007076,18.5269786 10.6967788,17.9164727 10.6967788,17.1633754 C10.6967788,16.4102781 11.3007076,15.7997722 12.0456915,15.7997722 C12.7906754,15.7997722 13.3946042,16.4102781 13.3946042,17.1633754 C13.3946042,17.9164727 12.7906754,18.5269786 12.0456915,18.5269786 Z" id="path-1"></path>
    </defs>
    <g id="Icons-/-Interface-/-Warning" stroke="none" stroke-width="1" fill="none" fill-rule="evenodd">
        <mask id="mask-2" fill="white">
            <use xlink:href="#path-1"></use>
        </mask>
        <use id="Mask" fill="#2550D9" xlink:href="#path-1"></use>
    </g>
</svg>