<?xml version="1.0" encoding="UTF-8"?>
<svg width="24px" height="24px" viewBox="0 0 24 24" version="1.1" xmlns="http://www.w3.org/2000/svg" xmlns:xlink="http://www.w3.org/1999/xlink">
    <!-- Generator: Sketch 53.2 (72643) - https://sketchapp.com -->
    <title>Icons / Interface / Analytics</title>
    <desc>Created with Sketch.</desc>
    <defs>
        <path d="M3,20 L21,20 C21.552,20 22,20.448 22,21 C22,21.552 21.552,22 21,22 L3,22 C2.448,22 2,21.552 2,21 C2,20.448 2.448,20 3,20 Z M15,2 L21,2 C21.552,2 22,2.448 22,3 L22,17 C22,17.552 21.552,18 21,18 L3,18 C2.448,18 2,17.552 2,17 L2,11 C2,10.448 2.448,10 3,10 L8,10 L8,7 C8,6.448 8.448,6 9,6 L14,6 L14,3 C14,2.448 14.448,2 15,2 Z M16,16 L20,16 L20,4 L16,4 L16,16 Z M10,16 L14,16 L14,8 L10,8 L10,16 Z M4,16 L8,16 L8,12 L4,12 L4,16 Z" id="path-1"></path>
    </defs>
    <g id="Icons-/-Interface-/-Analytics" stroke="none" stroke-width="1" fill="none" fill-rule="evenodd">
        <mask id="mask-2" fill="white">
            <use xlink:href="#path-1"></use>
        </mask>
        <use id="Mask" fill="#2550D9" xlink:href="#path-1"></use>
    </g>
</svg>