<?xml version="1.0" encoding="UTF-8"?>
<svg width="24px" height="24px" viewBox="0 0 24 24" version="1.1" xmlns="http://www.w3.org/2000/svg" xmlns:xlink="http://www.w3.org/1999/xlink">
    <!-- Generator: Sketch 52.6 (67491) - http://www.bohemiancoding.com/sketch -->
    <title>Icons / Interface / Investors</title>
    <desc>Created with Sketch.</desc>
    <defs>
        <path d="M19.7073855,17.293 C19.9753855,17.561 20.0683855,17.957 19.9483855,18.316 L18.9483855,21.316 C18.8123855,21.725 18.4303855,22 18.0003855,22 L6.00038548,22 C5.56938548,22 5.18738548,21.725 5.05138548,21.316 L4.05138548,18.316 C3.93138548,17.957 4.02538548,17.561 4.29338548,17.293 C4.42738548,17.158 7.63538548,14 12.0003855,14 C16.3643855,14 19.5723855,17.158 19.7073855,17.293 Z M17.2793855,20 L17.8413855,18.313 C16.9213855,17.561 14.6863855,16 12.0003855,16 C9.29738548,16 7.07338548,17.558 6.15738548,18.31 L6.72038548,20 L17.2793855,20 Z M12.0000855,4 C13.6540855,4 15.0000855,5.346 15.0000855,7 C15.0000855,8.654 13.6540855,10 12.0000855,10 C10.3460855,10 9.00008548,8.654 9.00008548,7 C9.00008548,5.346 10.3460855,4 12.0000855,4 Z M12.0000855,12 C14.7570855,12 17.0000855,9.757 17.0000855,7 C17.0000855,4.243 14.7570855,2 12.0000855,2 C9.24308548,2 7.00008548,4.243 7.00008548,7 C7.00008548,9.757 9.24308548,12 12.0000855,12" id="path-1"></path>
    </defs>
    <g id="Icons-/-Interface-/-Investors" stroke="none" stroke-width="1" fill="none" fill-rule="evenodd">
        <mask id="mask-2" fill="white">
            <use xlink:href="#path-1"></use>
        </mask>
        <use id="Mask" fill="#2550D9" xlink:href="#path-1"></use>
    </g>
</svg>