<?xml version="1.0" encoding="UTF-8"?>
<svg width="24px" height="24px" viewBox="0 0 24 24" version="1.1" xmlns="http://www.w3.org/2000/svg" xmlns:xlink="http://www.w3.org/1999/xlink">
    <!-- Generator: Sketch 52.6 (67491) - http://www.bohemiancoding.com/sketch -->
    <title>Icons / Interface / Lock</title>
    <desc>Created with Sketch.</desc>
    <g id="Icons-/-Interface-/-Lock" stroke="none" stroke-width="1" fill="none" fill-rule="evenodd">
        <path d="M18.7102273,10.0200092 L17.723079,10.0200092 L17.723079,7.57931232 C17.723079,4.50287716 15.2202019,2 12.1438148,2 C9.06733156,2 6.56435829,4.50287716 6.56435829,7.57931232 L6.56435829,10.0200092 L5.57721001,10.0200092 C5.2583798,10.0200092 5,10.278389 5,10.5971711 L5,21.42279 C5,21.7416202 5.2583798,22 5.57721001,22 L18.7102754,22 C19.0290095,22 19.2873893,21.7416202 19.2873893,21.42279 L19.2873893,10.5971711 C19.2873412,10.278389 19.0289614,10.0200092 18.7102273,10.0200092 Z M13.0436511,16.6086221 L13.0436511,18.9132815 C13.0436511,19.1145746 12.8804639,19.2778099 12.6791227,19.2778099 L11.6082185,19.2778099 C11.4069254,19.2778099 11.2436901,19.1146227 11.2436901,18.9132815 L11.2436901,16.6086221 C10.8454767,16.326312 10.585415,15.8621222 10.585415,15.3368572 C10.585415,14.4763761 11.2830453,13.7786497 12.1436706,13.7786497 C13.0041998,13.7786497 13.7018301,14.4763761 13.7018301,15.3368572 C13.7018781,15.8621222 13.4418165,16.326312 13.0436511,16.6086221 Z M15.0592731,10.0200092 L9.22816422,10.0200092 L9.22816422,7.57931232 C9.22816422,5.97165847 10.5361129,4.66380592 12.1438148,4.66380592 C13.7514206,4.66380592 15.0592731,5.97165847 15.0592731,7.57931232 L15.0592731,10.0200092 Z" id="Shape" fill="#2550D9"></path>
    </g>
</svg>