<?xml version="1.0" encoding="UTF-8"?>
<svg width="127px" height="50px" viewBox="0 0 127 50" version="1.1" xmlns="http://www.w3.org/2000/svg" xmlns:xlink="http://www.w3.org/1999/xlink">
    <!-- Generator: Sketch 52.6 (67491) - http://www.bohemiancoding.com/sketch -->
    <title>Combined Shape</title>
    <desc>Created with Sketch.</desc>
    <g id="Mockup" stroke="none" stroke-width="1" fill="none" fill-rule="evenodd">
        <g id="15_Log-In" transform="translate(-620.000000, -103.000000)" fill="#FFFFFF">
            <g id="Group" transform="translate(513.000000, 103.000000)">
                <g id="Pop-up">
                    <path d="M164.701041,13.8467837 L164.701041,16.1872113 L168.769615,16.1872113 L168.769615,17.8318491 L164.701041,17.8318491 L164.701041,21.0578772 L162.66672,21.0578772 L162.66672,12.2021459 L169.309545,12.2021459 L169.309545,13.8467837 L164.701041,13.8467837 Z M174.592072,21.2096984 C173.336365,21.2096984 172.356852,20.8596473 171.653669,20.1596135 C170.958838,19.4596482 170.611388,18.4602161 170.611388,17.1613171 L170.611388,12.2021459 L172.645709,12.2021459 L172.645709,17.085475 C172.645709,18.6710408 173.298649,19.4638237 174.604598,19.4638237 C175.240837,19.4638237 175.726418,19.2740815 176.061274,18.8945286 C176.396129,18.5065565 176.563557,17.9035158 176.563557,17.085475 L176.563557,12.2021459 L178.572757,12.2021459 L178.572757,17.1613171 C178.572757,18.4602161 178.221131,19.4596482 177.517949,20.1596135 C176.823117,20.8596473 175.84778,21.2096984 174.592072,21.2096984 Z M188.644837,12.2021459 L188.644837,21.0578772 L186.974668,21.0578772 L182.592184,15.6811636 L182.592184,21.0578772 L180.582984,21.0578772 L180.582984,12.2021459 L182.265679,12.2021459 L186.635637,17.5788595 L186.635637,12.2021459 L188.644837,12.2021459 Z M190.72454,12.2021459 L194.717477,12.2021459 C195.672349,12.2021459 196.513594,12.3877127 197.241897,12.7587778 C197.978415,13.1214236 198.547915,13.6358905 198.949714,14.3021786 C199.359727,14.9684667 199.565076,15.744411 199.565076,16.6300115 C199.565076,17.5155436 199.359727,18.2914879 198.949714,18.957776 C198.547915,19.6240641 197.978415,20.1427749 197.241897,20.5139085 C196.513594,20.8765543 195.672349,21.0578772 194.717477,21.0578772 L190.72454,21.0578772 L190.72454,12.2021459 Z M194.617541,19.3752499 C195.496433,19.3752499 196.195304,19.1306796 196.714151,18.641539 C197.241897,18.1439106 197.505428,17.4733787 197.505428,16.6300115 C197.505428,15.786576 197.241897,15.1202879 196.714151,14.6311473 C196.195304,14.1335189 195.496433,13.8847047 194.617541,13.8847047 L192.758793,13.8847047 L192.758793,19.3752499 L194.617541,19.3752499 Z M166.471626,28.7685658 C167.250172,28.7685658 167.924058,28.8993045 168.493353,29.1607134 C169.070998,29.4221908 169.514689,29.7932559 169.824423,30.2740456 C170.134157,30.754767 170.289059,31.324062 170.289059,31.9819308 C170.289059,32.6313119 170.134157,33.2006069 169.824423,33.689816 C169.514689,34.1705373 169.070998,34.5416709 168.493353,34.8030798 C167.924058,35.0561378 167.250172,35.1826326 166.471626,35.1826326 L164.701041,35.1826326 L164.701041,37.6242972 L162.66672,37.6242972 L162.66672,28.7685658 L166.471626,28.7685658 Z M166.358616,33.5126685 C166.969734,33.5126685 167.434301,33.3819298 167.752454,33.1205209 C168.07054,32.8506243 168.229616,32.4710714 168.229616,31.9819308 C168.229616,31.4843024 168.07054,31.1047496 167.752454,30.8433407 C167.434301,30.573444 166.969734,30.4384615 166.358616,30.4384615 L164.701041,30.4384615 L164.701041,33.5126685 L166.358616,33.5126685 Z M171.741353,28.7685658 L173.775674,28.7685658 L173.775674,35.954333 L178.183279,35.954333 L178.183279,37.6242972 L171.741353,37.6242972 L171.741353,28.7685658 Z M185.182384,35.7266013 L181.101284,35.7266013 L180.322739,37.6242972 L178.238175,37.6242972 L182.156092,28.7685658 L184.165292,28.7685658 L188.095735,37.6242972 L185.960998,37.6242972 L185.182384,35.7266013 Z M184.54197,34.1705373 L183.148131,30.7800933 L181.754293,34.1705373 L184.54197,34.1705373 Z M190.387015,30.4384615 L187.574217,30.4384615 L187.574217,28.7685658 L195.234272,28.7685658 L195.234272,30.4384615 L192.421337,30.4384615 L192.421337,37.6242972 L190.387015,37.6242972 L190.387015,30.4384615 Z M198.363101,30.4132036 L198.363101,32.7536312 L202.431744,32.7536312 L202.431744,34.398269 L198.363101,34.398269 L198.363101,37.6242972 L196.32878,37.6242972 L196.32878,28.7685658 L202.971811,28.7685658 L202.971811,30.4132036 L198.363101,30.4132036 Z M208.519648,37.7761183 C207.607216,37.7761183 206.782398,37.5778884 206.045881,37.1814969 C205.317577,36.7851055 204.74397,36.2410683 204.325743,35.5495223 C203.91573,34.8494886 203.710382,34.065125 203.710382,33.1964315 C203.710382,32.327738 203.91573,31.5475499 204.325743,30.8559354 C204.74397,30.1559701 205.317577,29.6077575 206.045881,29.2113661 C206.782398,28.8149062 207.607216,28.6167447 208.519648,28.6167447 C209.432081,28.6167447 210.252791,28.8149062 210.981095,29.2113661 C211.709398,29.6077575 212.283006,30.1559701 212.701232,30.8559354 C213.120144,31.5475499 213.329599,32.327738 213.329599,33.1964315 C213.329599,34.065125 213.120144,34.8494886 212.701232,35.5495223 C212.283006,36.2410683 211.709398,36.7851055 210.981095,37.1814969 C210.252791,37.5778884 209.432081,37.7761183 208.519648,37.7761183 Z M208.519648,36.0302436 C209.03918,36.0302436 209.507376,35.9121681 209.926287,35.6760171 C210.344514,35.4314468 210.671018,35.0940589 210.9058,34.6639218 C211.148796,34.2337847 211.269952,33.7446441 211.269952,33.1964315 C211.269952,32.6482189 211.148796,32.1590098 210.9058,31.7288728 C210.671018,31.2987357 210.344514,30.9655916 209.926287,30.7294406 C209.507376,30.4848703 209.03918,30.3625509 208.519648,30.3625509 C208.000801,30.3625509 207.531921,30.4848703 207.113694,30.7294406 C206.694783,30.9655916 206.364171,31.2987357 206.121175,31.7288728 C205.887078,32.1590098 205.770029,32.6482189 205.770029,33.1964315 C205.770029,33.7446441 205.887078,34.2337847 206.121175,34.6639218 C206.364171,35.0940589 206.694783,35.4314468 207.113694,35.6760171 C207.531921,35.9121681 208.000801,36.0302436 208.519648,36.0302436 Z M220.458622,37.6242972 L218.763811,35.1573063 L218.66319,35.1573063 L216.892399,35.1573063 L216.892399,37.6242972 L214.858078,37.6242972 L214.858078,28.7685658 L218.66319,28.7685658 C219.441461,28.7685658 220.11569,28.8993045 220.684506,29.1607134 C221.26222,29.4221908 221.705773,29.7932559 222.01585,30.2740456 C222.325242,30.754767 222.480622,31.324062 222.480622,31.9819308 C222.480622,32.6397996 222.321135,33.2090947 222.003529,33.689816 C221.693452,34.162118 221.249899,34.5247638 220.672185,34.7778219 L222.643532,37.6242972 L220.458622,37.6242972 Z M220.420975,31.9819308 C220.420975,31.4843024 220.262172,31.1047496 219.943881,30.8433407 C219.625591,30.573444 219.160818,30.4384615 218.550248,30.4384615 L216.892399,30.4384615 L216.892399,33.5253317 L218.550248,33.5253317 C219.160818,33.5253317 219.625591,33.3904176 219.943881,33.1205209 C220.262172,32.8506243 220.420975,32.4710714 220.420975,31.9819308 Z M232.090942,37.6242972 L232.078621,32.310831 L229.491911,36.6881124 L228.575372,36.6881124 L226.000983,32.4247311 L226.000983,37.6242972 L224.091925,37.6242972 L224.091925,28.7685658 L225.7751,28.7685658 L229.064786,34.2717742 L232.304504,28.7685658 L233.974674,28.7685658 L234,37.6242972 L232.090942,37.6242972 Z M127.509327,9.87552 L135.898259,14.1078494 L143.1368,10.4568565 L127.509327,2.57315294 L127.509327,9.87552 Z M126.576969,11.5080565 L119.338428,15.1589647 L126.576969,18.8098729 L133.815511,15.1589647 L126.576969,11.5080565 Z M128.661242,19.8620894 L135.898767,23.5135059 L144.289308,19.2807529 L144.289308,11.9783435 L128.661242,19.8620894 Z M126.576969,20.9137976 L119.338428,24.5647059 L126.576461,28.2161224 L133.815002,24.5647059 L126.576969,20.9137976 Z M128.661242,29.2673224 L135.898767,32.9177224 L143.137308,29.2673224 L135.898767,25.6159059 L128.661242,29.2673224 Z M126.576969,30.3190306 L119.338428,33.9694306 L126.576969,37.6208471 L133.815511,33.9694306 L126.576969,30.3190306 Z M127.509327,39.2538918 L127.509327,46.5557082 L144.289308,38.0916424 L144.289308,30.7888094 L127.509327,39.2538918 Z M146.153939,20.4429176 L137.984141,24.5647059 L146.153939,28.6859859 L146.153939,39.2538918 L126.576969,49.1294118 L107,39.2538918 L107,28.6859859 L115.169332,24.5647059 L107,20.4429176 L107,9.87552 L126.576969,0 L146.153939,9.87552 L146.153939,20.4429176 Z M110.016639,10.4568565 L117.254155,14.1078494 L125.644612,9.87552 L125.644612,2.57315294 L110.016639,10.4568565 Z M108.864664,11.9783435 L108.864664,19.2807529 L117.254155,23.5129976 L124.492696,19.8615812 L108.864664,11.9783435 Z M110.016639,29.2673224 L117.254155,32.9177224 L124.492696,29.2673224 L117.254155,25.6159059 L110.016639,29.2673224 Z M108.864664,30.7888094 L108.864664,38.0916424 L125.644612,46.5557082 L125.644612,39.2538918 L108.864664,30.7888094 Z" id="Combined-Shape"></path>
                </g>
            </g>
        </g>
    </g>
</svg>