<?xml version="1.0" encoding="UTF-8"?>
<svg width="72px" height="90px" viewBox="0 0 72 90" version="1.1" xmlns="http://www.w3.org/2000/svg" xmlns:xlink="http://www.w3.org/1999/xlink">
    <!-- Generator: Sketch 52.6 (67491) - http://www.bohemiancoding.com/sketch -->
    <title>Group 4</title>
    <desc>Created with Sketch.</desc>
    <g id="Page-1" stroke="none" stroke-width="1" fill="none" fill-rule="evenodd">
        <g id="07_Sign-Up_Password" transform="translate(-80.000000, -96.000000)" fill="#FFFFFF">
            <g id="Group-4" transform="translate(80.000000, 96.000000)">
                <path d="M2.70104117,65.8467837 L2.70104117,68.1872113 L6.76961505,68.1872113 L6.76961505,69.8318491 L2.70104117,69.8318491 L2.70104117,73.0578772 L0.66672,73.0578772 L0.66672,64.2021459 L7.30954524,64.2021459 L7.30954524,65.8467837 L2.70104117,65.8467837 Z M12.5920722,73.2096984 C11.3363649,73.2096984 10.3568516,72.8596473 9.65366915,72.1596135 C8.95883758,71.4596482 8.61138758,70.4602161 8.61138758,69.1613171 L8.61138758,64.2021459 L10.6457087,64.2021459 L10.6457087,69.085475 C10.6457087,70.6710408 11.2986492,71.4638237 12.6045985,71.4638237 C13.2408372,71.4638237 13.7264185,71.2740815 14.0612737,70.8945286 C14.396129,70.5065565 14.5635567,69.9035158 14.5635567,69.085475 L14.5635567,64.2021459 L16.5727568,64.2021459 L16.5727568,69.1613171 C16.5727568,70.4602161 16.2211314,71.4596482 15.517949,72.1596135 C14.8231174,72.8596473 13.8477795,73.2096984 12.5920722,73.2096984 Z M26.644837,64.2021459 L26.644837,73.0578772 L24.9746675,73.0578772 L20.5921839,67.6811636 L20.5921839,73.0578772 L18.5829838,73.0578772 L18.5829838,64.2021459 L20.2656795,64.2021459 L24.6356368,69.5788595 L24.6356368,64.2021459 L26.644837,64.2021459 Z M28.7245402,64.2021459 L32.7174773,64.2021459 C33.6723488,64.2021459 34.513594,64.3877127 35.2418974,64.7587778 C35.9784148,65.1214236 36.5479152,65.6358905 36.9497141,66.3021786 C37.359727,66.9684667 37.5650758,67.744411 37.5650758,68.6300115 C37.5650758,69.5155436 37.359727,70.2914879 36.9497141,70.957776 C36.5479152,71.6240641 35.9784148,72.1427749 35.2418974,72.5139085 C34.513594,72.8765543 33.6723488,73.0578772 32.7174773,73.0578772 L28.7245402,73.0578772 L28.7245402,64.2021459 Z M32.617541,71.3752499 C33.4964334,71.3752499 34.1953035,71.1306796 34.7141512,70.641539 C35.2418974,70.1439106 35.5054282,69.4733787 35.5054282,68.6300115 C35.5054282,67.786576 35.2418974,67.1202879 34.7141512,66.6311473 C34.1953035,66.1335189 33.4964334,65.8847047 32.617541,65.8847047 L30.7587929,65.8847047 L30.7587929,71.3752499 L32.617541,71.3752499 Z M4.47162614,80.7685658 C5.25017153,80.7685658 5.92405753,80.8993045 6.49335259,81.1607134 C7.07099849,81.4221908 7.5146886,81.7932559 7.82442289,82.2740456 C8.13415719,82.754767 8.28905856,83.324062 8.28905856,83.9819308 C8.28905856,84.6313119 8.13415719,85.2006069 7.82442289,85.689816 C7.5146886,86.1705373 7.07099849,86.5416709 6.49335259,86.8030798 C5.92405753,87.0561378 5.25017153,87.1826326 4.47162614,87.1826326 L2.70104117,87.1826326 L2.70104117,89.6242972 L0.66672,89.6242972 L0.66672,80.7685658 L4.47162614,80.7685658 Z M4.35861591,85.5126685 C4.96973365,85.5126685 5.43430087,85.3819298 5.75245446,85.1205209 C6.07053961,84.8506243 6.2296164,84.4710714 6.2296164,83.9819308 C6.2296164,83.4843024 6.07053961,83.1047496 5.75245446,82.8433407 C5.43430087,82.573444 4.96973365,82.4384615 4.35861591,82.4384615 L2.70104117,82.4384615 L2.70104117,85.5126685 L4.35861591,85.5126685 Z M9.74135305,80.7685658 L11.7756742,80.7685658 L11.7756742,87.954333 L16.1832788,87.954333 L16.1832788,89.6242972 L9.74135305,89.6242972 L9.74135305,80.7685658 Z M23.182384,87.7266013 L19.1012839,87.7266013 L18.3227385,89.6242972 L16.2381754,89.6242972 L20.1560917,80.7685658 L22.1652919,80.7685658 L26.0957346,89.6242972 L23.9609979,89.6242972 L23.182384,87.7266013 Z M22.5419699,86.1705373 L21.1481313,82.7800933 L19.7542928,86.1705373 L22.5419699,86.1705373 Z M28.3870154,82.4384615 L25.5742173,82.4384615 L25.5742173,80.7685658 L33.2342716,80.7685658 L33.2342716,82.4384615 L30.4213366,82.4384615 L30.4213366,89.6242972 L28.3870154,89.6242972 L28.3870154,82.4384615 Z M36.3631013,82.4132036 L36.3631013,84.7536312 L40.4317437,84.7536312 L40.4317437,86.398269 L36.3631013,86.398269 L36.3631013,89.6242972 L34.3287802,89.6242972 L34.3287802,80.7685658 L40.9718108,80.7685658 L40.9718108,82.4132036 L36.3631013,82.4132036 Z M46.5196483,89.7761183 C45.6072155,89.7761183 44.7823982,89.5778884 44.0458809,89.1814969 C43.3175775,88.7851055 42.7439701,88.2410683 42.3257432,87.5495223 C41.9157303,86.8494886 41.7103816,86.065125 41.7103816,85.1964315 C41.7103816,84.327738 41.9157303,83.5475499 42.3257432,82.8559354 C42.7439701,82.1559701 43.3175775,81.6077575 44.0458809,81.2113661 C44.7823982,80.8149062 45.6072155,80.6167447 46.5196483,80.6167447 C47.432081,80.6167447 48.2527913,80.8149062 48.9810947,81.2113661 C49.7093981,81.6077575 50.2830055,82.1559701 50.7012324,82.8559354 C51.1201437,83.5475499 51.3295994,84.327738 51.3295994,85.1964315 C51.3295994,86.065125 51.1201437,86.8494886 50.7012324,87.5495223 C50.2830055,88.2410683 49.7093981,88.7851055 48.9810947,89.1814969 C48.2527913,89.5778884 47.432081,89.7761183 46.5196483,89.7761183 Z M46.5196483,88.0302436 C47.0391805,88.0302436 47.5073755,87.9121681 47.9262869,87.6760171 C48.3445137,87.4314468 48.6710182,87.0940589 48.9058002,86.6639218 C49.1487962,86.2337847 49.2699519,85.7446441 49.2699519,85.1964315 C49.2699519,84.6482189 49.1487962,84.1590098 48.9058002,83.7288728 C48.6710182,83.2987357 48.3445137,82.9655916 47.9262869,82.7294406 C47.5073755,82.4848703 47.0391805,82.3625509 46.5196483,82.3625509 C46.0008005,82.3625509 45.531921,82.4848703 45.1136941,82.7294406 C44.6947828,82.9655916 44.3641714,83.2987357 44.1211754,83.7288728 C43.8870779,84.1590098 43.7700291,84.6482189 43.7700291,85.1964315 C43.7700291,85.7446441 43.8870779,86.2337847 44.1211754,86.6639218 C44.3641714,87.0940589 44.6947828,87.4314468 45.1136941,87.6760171 C45.531921,87.9121681 46.0008005,88.0302436 46.5196483,88.0302436 Z M58.4586219,89.6242972 L56.7638106,87.1573063 L56.6631898,87.1573063 L54.8923994,87.1573063 L54.8923994,89.6242972 L52.8580783,89.6242972 L52.8580783,80.7685658 L56.6631898,80.7685658 C57.4414614,80.7685658 58.1156896,80.8993045 58.6845055,81.1607134 C59.2622199,81.4221908 59.7057731,81.7932559 60.0158496,82.2740456 C60.3252417,82.754767 60.4806222,83.324062 60.4806222,83.9819308 C60.4806222,84.6397996 60.3211347,85.2090947 60.0035287,85.689816 C59.6934521,86.162118 59.2498989,86.5247638 58.6721846,86.7778219 L60.6435321,89.6242972 L58.4586219,89.6242972 Z M58.4209747,83.9819308 C58.4209747,83.4843024 58.2621717,83.1047496 57.9438812,82.8433407 C57.6255907,82.573444 57.1608181,82.4384615 56.550248,82.4384615 L54.8923994,82.4384615 L54.8923994,85.5253317 L56.550248,85.5253317 C57.1608181,85.5253317 57.6255907,85.3904176 57.9438812,85.1205209 C58.2621717,84.8506243 58.4209747,84.4710714 58.4209747,83.9819308 Z M70.0909415,89.6242972 L70.0786206,84.310831 L67.4919114,88.6881124 L66.5753717,88.6881124 L64.0009835,84.4247311 L64.0009835,89.6242972 L62.091925,89.6242972 L62.091925,80.7685658 L63.7750999,80.7685658 L67.0647861,86.2717742 L70.3045042,80.7685658 L71.9746737,80.7685658 L72,89.6242972 L70.0909415,89.6242972 Z M20.5093271,9.87552 L28.8982588,14.1078494 L36.1368,10.4568565 L20.5093271,2.57315294 L20.5093271,9.87552 Z M19.5769694,11.5080565 L12.3384282,15.1589647 L19.5769694,18.8098729 L26.8155106,15.1589647 L19.5769694,11.5080565 Z M21.6612424,19.8620894 L28.8987671,23.5135059 L37.2893082,19.2807529 L37.2893082,11.9783435 L21.6612424,19.8620894 Z M19.5769694,20.9137976 L12.3384282,24.5647059 L19.5764612,28.2161224 L26.8150024,24.5647059 L19.5769694,20.9137976 Z M21.6612424,29.2673224 L28.8987671,32.9177224 L36.1373082,29.2673224 L28.8987671,25.6159059 L21.6612424,29.2673224 Z M19.5769694,30.3190306 L12.3384282,33.9694306 L19.5769694,37.6208471 L26.8155106,33.9694306 L19.5769694,30.3190306 Z M20.5093271,39.2538918 L20.5093271,46.5557082 L37.2893082,38.0916424 L37.2893082,30.7888094 L20.5093271,39.2538918 Z M39.1539388,20.4429176 L30.9841412,24.5647059 L39.1539388,28.6859859 L39.1539388,39.2538918 L19.5769694,49.1294118 L0,39.2538918 L0,28.6859859 L8.16933176,24.5647059 L0,20.4429176 L0,9.87552 L19.5769694,0 L39.1539388,9.87552 L39.1539388,20.4429176 Z M3.01663906,10.4568565 L10.2541553,14.1078494 L18.6446118,9.87552 L18.6446118,2.57315294 L3.01663906,10.4568565 Z M1.86466447,11.9783435 L1.86466447,19.2807529 L10.2541553,23.5129976 L17.4926965,19.8615812 L1.86466447,11.9783435 Z M3.01663906,29.2673224 L10.2541553,32.9177224 L17.4926965,29.2673224 L10.2541553,25.6159059 L3.01663906,29.2673224 Z M1.86466447,30.7888094 L1.86466447,38.0916424 L18.6446118,46.5557082 L18.6446118,39.2538918 L1.86466447,30.7888094 Z" id="Combined-Shape"></path>
            </g>
        </g>
    </g>
</svg>